<svg xmlns="http://www.w3.org/2000/svg" viewBox="0 0 320 160" fill="none"><g stroke="#ebd67a" stroke-width="3"><rect x="5" y="5" width="310" height="150" rx="18"/><rect x="16" y="16" width="288" height="128" rx="10"/><path d="m38 14 5 14 14 5-14 5-5 14-5-14-14-5 14-5 5-14Zm244 0 5 14 14 5-14 5-5 14-5-14-14-5 14-5 5-14ZM38 108l5 14 14 5-14 5-5 14-5-14-14-5 14-5 5-14Zm244 0 5 14 14 5-14 5-5 14-5-14-14-5 14-5 5-14Z"/><circle cx="70" cy="19" r="4"/><circle cx="250" cy="19" r="4"/><circle cx="70" cy="141" r="4"/><circle cx="250" cy="141" r="4"/><path d="M99 10h42m38 0h42M99 150h42m38 0h42"/></g></svg>
