<svg xmlns="http://www.w3.org/2000/svg" viewBox="0 0 320 160" fill="none"><g stroke="#27e6dc" stroke-width="3"><rect x="5" y="5" width="310" height="150" rx="8"/><rect x="16" y="16" width="288" height="128" rx="3"/><path d="M5 52h18V34h18V16h25M315 52h-18V34h-18V16h-25M5 108h18v18h18v18h25M315 108h-18v18h-18v18h-25"/><circle cx="23" cy="52" r="5" fill="#27e6dc"/><circle cx="297" cy="52" r="5" fill="#27e6dc"/><circle cx="23" cy="108" r="5" fill="#27e6dc"/><circle cx="297" cy="108" r="5" fill="#27e6dc"/><g stroke="#df55ff"><path d="M82 10h50l10 8h36l10-8h50M82 150h50l10-8h36l10 8h50"/><circle cx="142" cy="18" r="4" fill="#df55ff"/><circle cx="178" cy="142" r="4" fill="#df55ff"/></g></g></svg>
