<svg xmlns="http://www.w3.org/2000/svg" viewBox="0 0 320 160" fill="none"><g stroke="#58d1c5" stroke-width="3"><rect x="5" y="5" width="310" height="150" rx="10"/><rect x="16" y="16" width="288" height="128" rx="5"/><path d="M5 48h18l12-12 12 12h18M255 48h18l12-12 12 12h18M5 112h18l12 12 12-12h18M255 112h18l12 12 12-12h18"/><path d="m22 22 13-13 13 13-13 13-13-13Zm250 0 13-13 13 13-13 13-13-13ZM22 138l13 13 13-13-13-13-13 13Zm250 0 13 13 13-13-13-13-13 13Z"/><path d="M85 10h45l10 8h40l10-8h45M85 150h45l10-8h40l10 8h45"/></g></svg>
