<svg xmlns="http://www.w3.org/2000/svg" viewBox="0 0 320 160" fill="none"><g stroke="#f2c866" stroke-width="3"><rect x="5" y="5" width="310" height="150" rx="24"/><rect x="16" y="16" width="288" height="128" rx="15"/><path d="M5 62c28 0 47-19 47-47M16 72c31-4 52-25 56-56M315 62c-28 0-47-19-47-47M304 72c-31-4-52-25-56-56M5 98c28 0 47 19 47 47M16 88c31 4 52 25 56 56M315 98c-28 0-47 19-47 47M304 88c-31 4-52 25-56 56"/><path d="M30 30c0-10 8-18 18-18 0 10-8 18-18 18Zm260 0c0-10-8-18-18-18 0 10 8 18 18 18ZM30 130c0 10 8 18 18 18 0-10-8-18-18-18Zm260 0c0 10-8 18-18 18 0-10 8-18 18-18Z"/><path d="M112 10h28l20 12 20-12h28M112 150h28l20-12 20 12h28"/></g></svg>
