<svg xmlns="http://www.w3.org/2000/svg" viewBox="0 0 320 160" fill="none"><g stroke="#d5c67b" stroke-width="3"><rect x="5" y="5" width="310" height="150" rx="20"/><rect x="16" y="16" width="288" height="128" rx="13"/><path d="M7 57c25-3 43-21 47-49M17 65c24-7 40-23 48-47M313 57c-25-3-43-21-47-49M303 65c-24-7-40-23-48-47M7 103c25 3 43 21 47 49M17 95c24 7 40 23 48 47M313 103c-25 3-43 21-47 49M303 95c-24 7-40 23-48 47"/><path d="M29 42c-1-12 5-19 17-21 1 12-5 19-17 21Zm17 5c12-1 19 5 21 17-12 1-19-5-21-17Zm245-5c1-12-5-19-17-21-1 12 5 19 17 21Zm-17 5c-12-1-19 5-21 17 12 1 19-5 21-17ZM29 118c-1 12 5 19 17 21 1-12-5-19-17-21Zm17-5c12 1 19-5 21-17-12-1-19 5-21 17Zm245 5c1 12-5 19-17 21-1-12 5-19 17-21Zm-17-5c-12 1-19-5-21-17 12-1 19 5 21 17Z"/></g></svg>
