<svg xmlns="http://www.w3.org/2000/svg" viewBox="0 0 320 160" fill="none"><g stroke="#e2bc69" stroke-width="3"><rect x="5" y="5" width="310" height="150" rx="18"/><rect x="15" y="15" width="290" height="130" rx="11"/><path d="M5 42c22 0 37-15 37-37M15 51c20 0 36-16 36-36M278 5c0 22 15 37 37 37M269 15c0 20 16 36 36 36M5 118c22 0 37 15 37 37M15 109c20 0 36 16 36 36M278 155c0-22 15-37 37-37M269 145c0-20 16-36 36-36"/><path d="M31 31l11-4 4-11 4 11 11 4-11 4-4 11-4-11-11-4Zm228 0 11-4 4-11 4 11 11 4-11 4-4 11-4-11-11-4ZM31 129l11-4 4-11 4 11 11 4-11 4-4 11-4-11-11-4Zm228 0 11-4 4-11 4 11 11 4-11 4-4 11-4-11-11-4Z"/></g></svg>
