<svg xmlns="http://www.w3.org/2000/svg" viewBox="0 0 320 160" fill="none"><g stroke="#b9c8e4" stroke-width="3"><rect x="5" y="5" width="310" height="150" rx="8"/><rect x="16" y="16" width="288" height="128" rx="4"/><path d="M5 48 28 25 49 5M16 58l18-24 24-18M315 48l-23-23-21-20M304 58l-18-24-24-18M5 112l23 23 21 20M16 102l18 24 24 18M315 112l-23 23-21 20M304 102l-18 24-24 18"/><path d="M31 25c12 2 18 8 20 20-12-2-18-8-20-20Zm258 0c-12 2-18 8-20 20 12-2 18-8 20-20ZM31 135c12-2 18-8 20-20-12 2-18 8-20 20Zm258 0c-12-2-18-8-20-20 12 2 18 8 20 20Z"/></g></svg>
