<svg xmlns="http://www.w3.org/2000/svg" viewBox="0 0 320 160" fill="none"><g stroke="#75e1df" stroke-width="3"><rect x="5" y="5" width="310" height="150" rx="20"/><rect x="16" y="16" width="288" height="128" rx="12"/><path d="M5 47c12-15 24-15 36 0s24 15 36 0M243 47c12-15 24-15 36 0s24 15 36 0M5 113c12-15 24-15 36 0s24 15 36 0M243 113c12-15 24-15 36 0s24 15 36 0"/><path d="M22 22c18 1 29 12 30 30-18-1-29-12-30-30Zm276 0c-18 1-29 12-30 30 18-1 29-12 30-30ZM22 138c18-1 29-12 30-30-18 1-29 12-30 30Zm276 0c-18-1-29-12-30-30 18 1 29 12 30 30Z"/></g></svg>
