<svg xmlns="http://www.w3.org/2000/svg" viewBox="0 0 320 160" fill="none"><g stroke="#ffd0dd" stroke-width="3"><rect x="5" y="5" width="310" height="150" rx="22"/><rect x="16" y="16" width="288" height="128" rx="14"/><path d="M8 55c24-2 43-18 53-46M18 68c23-9 40-25 49-49M312 55c-24-2-43-18-53-46M302 68c-23-9-40-25-49-49M8 105c24 2 43 18 53 46M18 92c23 9 40 25 49 49M312 105c-24 2-43 18-53 46M302 92c-23 9-40 25-49 49"/><path d="M39 24c6-10 13-10 19 0 10-6 16-2 13 10 11 3 12 11 1 16-1 11-9 14-17 5-9 7-16 3-15-9-11-4-11-12 0-16-3-3-3-4-1-6Zm242 0c-6-10-13-10-19 0-10-6-16-2-13 10-11 3-12 11-1 16 1 11 9 14 17 5 9 7 16 3 15-9 11-4 11-12 0-16 3-3 3-4 1-6Z"/></g></svg>
